<?xml version="1.0" standalone="no"?>
<!DOCTYPE svg PUBLIC "-//W3C//DTD SVG 20010904//EN"
 "http://www.w3.org/TR/2001/REC-SVG-20010904/DTD/svg10.dtd">
<svg version="1.0" xmlns="http://www.w3.org/2000/svg"
 width="480.000000pt" height="480.000000pt" viewBox="0 0 480.000000 480.000000"
 preserveAspectRatio="xMidYMid meet">

<g transform="translate(0.000000,480.000000) scale(0.100000,-0.100000)"
fill="#000000" stroke="none">
<path d="M920 4794 c-306 -46 -539 -178 -706 -400 -108 -145 -181 -321 -204
-495 -8 -59 -10 -523 -8 -1554 l3 -1470 23 -80 c51 -179 102 -285 200 -406
166 -206 412 -345 672 -379 60 -8 519 -10 1555 -8 l1470 3 80 23 c179 51 285
102 406 200 206 166 345 412 379 672 8 60 10 519 8 1555 l-3 1470 -23 80 c-51
179 -102 285 -200 406 -164 204 -408 343 -665 378 -54 8 -534 11 -1520 10
-793 -1 -1453 -3 -1467 -5z m1750 -1429 l0 -335 215 0 215 0 0 -285 0 -285
-215 0 -216 0 3 -349 c3 -335 4 -351 24 -377 49 -66 59 -69 255 -72 l179 -3 0
-280 0 -280 -337 3 c-311 4 -343 5 -395 24 -138 50 -258 151 -320 270 -67 127
-68 138 -68 626 l0 438 -170 0 -170 0 0 285 0 285 170 0 170 0 0 335 0 335
330 0 330 0 0 -335z"/>
</g>
</svg>
